#!OML:ASF H:\Dans Jumps\Project 1\Capture day 1\Session 1\subject.ASF
:FULLY-SPECIFIED
:DEGREES
146
root 0.616997 17.2714 -14.7278 8.77182 0.329165 -2.5349
lowerback 3.07634 -0.459935 1.48764
upperback 3.11169 -0.606663 2.1944
thorax 1.47677 -0.299699 1.42775
lowerneck -15.3194 -0.322083 -2.53907
upperneck 5.17787 0.00810519 0.628028
head 4.01024 -0.0147304 0.601674
rclavicle -5.96354e-015 2.06736e-014
rhumerus -23.6967 -15.3799 -79.4242
rradius 28.475
rwrist 28.894
rhand -17.9988 -25.6339
rfingers 7.12502
rthumb 8.27152 -55.452
lclavicle -5.96354e-015 2.06736e-014
lhumerus -22.5439 -4.32669 87.9376
lradius 24.7466
lwrist 9.07306
lhand -25.6207 -4.8579
lfingers 7.12502
lthumb 0.912039 25.1199
rfemur -23.5656 -2.24384 20.7174
rtibia 30.2298
rfoot -14.9563 -3.3445
rtoes 0.550359
lfemur -23.8766 9.54362 -18.2445
ltibia 30.1769
lfoot -13.9156 3.62461
ltoes -9.32599
147
root 0.619056 17.2467 -14.7739 9.07211 0.307386 -2.55947
lowerback 3.52954 -0.441675 1.4913
upperback 3.17112 -0.570333 2.21332
thorax 1.28424 -0.28214 1.44806
lowerneck -15.3945 -0.332178 -2.53584
upperneck 5.05586 -0.00134342 0.596678
head 3.98445 -0.0202724 0.590607
rclavicle -1.98785e-016 -4.77083e-015
rhumerus -23.6775 -15.3221 -79.2963
rradius 28.5687
rwrist 28.7373
rhand -18.0296 -25.5753
rfingers 7.12502
rthumb 8.24181 -55.3946
lclavicle -1.98785e-016 -4.77083e-015
lhumerus -22.6116 -4.43271 87.77
lradius 24.9314
lwrist 9.40432
lhand -25.8768 -5.19825
lfingers 7.12502
lthumb 0.664694 24.7805
rfemur -24.505 -2.20621 20.754
rtibia 31.0206
rfoot -15.127 -3.40234
rtoes 0.367182
lfemur -24.8267 9.56396 -18.3112
ltibia 30.992
lfoot -14.0847 3.72863
ltoes -9.47661
148
root 0.621001 17.2204 -14.8214 9.38203 0.28162 -2.57622
lowerback 4.00303 -0.422439 1.48165
upperback 3.23529 -0.532489 2.23082
thorax 1.08562 -0.264043 1.47416
lowerneck -15.4814 -0.340231 -2.53086
upperneck 4.91814 -0.0079868 0.563112
head 3.95558 -0.0243949 0.57878
rclavicle 4.07509e-015 -3.29983e-014
rhumerus -23.6651 -15.2592 -79.1619
rradius 28.6664
rwrist 28.5721
rhand -18.0612 -25.5272
rfingers 7.12502
rthumb 8.21124 -55.3476
lclavicle 4.07509e-015 -3.29983e-014
lhumerus -22.6828 -4.50706 87.5877
lradius 25.112
lwrist 9.71891
lhand -26.073 -5.39005
lfingers 7.12502
lthumb 0.475266 24.5892
rfemur -25.4772 -2.1569 20.7818
rtibia 31.841
rfoot -15.3093 -3.47197
rtoes 0.187291
lfemur -25.8003 9.57173 -18.3866
ltibia 31.8241
lfoot -14.2556 3.86064
ltoes -9.65806
149
root 0.622713 17.1923 -14.87 9.70003 0.252762 -2.58517
lowerback 4.49659 -0.401591 1.45844
upperback 3.30461 -0.49253 2.24664
thorax 0.881466 -0.245081 1.50587
lowerneck -15.5807 -0.346218 -2.52226
upperneck 4.76618 -0.011991 0.525505
head 3.9242 -0.0272576 0.565325
rclavicle 2.28602e-015 5.1684e-015
rhumerus -23.6645 -15.1902 -79.0195
rradius 28.7686
rwrist 28.4028
rhand -18.1057 -25.4573
rfingers 7.12502
rthumb 8.16834 -55.2794
lclavicle 2.28602e-015 5.1684e-015
lhumerus -22.761 -4.55935 87.3921
lradius 25.2862
lwrist 10.0177
lhand -26.2126 -5.44042
lfingers 7.12502
lthumb 0.340416 24.539
rfemur -26.4786 -2.09828 20.8007
rtibia 32.6897
rfoot -15.505 -3.55222
rtoes 0.0143436
lfemur -26.7955 9.57004 -18.47
ltibia 32.6727
lfoot -14.4292 4.01511
ltoes -9.87007
